<svg xmlns="http://www.w3.org/2000/svg" width="1200" height="900" viewBox="0 0 1200 900" fill="none">
<rect width="1200" height="900" fill="#0c1228"/>
<rect x="60" y="60" width="1080" height="780" rx="40" fill="url(#g1)" stroke="rgba(255,255,255,0.12)"/>
<circle cx="260" cy="240" r="180" fill="#6b8cff" fill-opacity="0.25"/>
<circle cx="950" cy="700" r="220" fill="#6b8cff" fill-opacity="0.18"/>
<rect x="160" y="170" width="420" height="24" rx="12" fill="white" fill-opacity="0.55"/>
<rect x="160" y="220" width="580" height="18" rx="9" fill="white" fill-opacity="0.14"/>
<rect x="160" y="255" width="520" height="18" rx="9" fill="white" fill-opacity="0.10"/>
<rect x="160" y="290" width="460" height="18" rx="9" fill="white" fill-opacity="0.10"/>
<rect x="160" y="390" width="880" height="280" rx="28" fill="white" fill-opacity="0.05" stroke="white" stroke-opacity="0.10"/>
<rect x="200" y="430" width="240" height="180" rx="24" fill="white" fill-opacity="0.06"/>
<rect x="480" y="430" width="240" height="180" rx="24" fill="white" fill-opacity="0.09"/>
<rect x="760" y="430" width="240" height="180" rx="24" fill="white" fill-opacity="0.06"/>
<text x="160" y="760" fill="white" fill-opacity="0.86" font-family="Inter, Arial, sans-serif" font-size="46" font-weight="700">Control Room Mood</text>
<text x="160" y="806" fill="white" fill-opacity="0.42" font-family="Inter, Arial, sans-serif" font-size="24">Dummy image placeholder for portfolio gallery layout</text>
<defs>
<linearGradient id="g1" x1="80" y1="80" x2="1120" y2="820" gradientUnits="userSpaceOnUse">
<stop stop-color="white" stop-opacity="0.06"/>
<stop offset="1" stop-color="white" stop-opacity="0.02"/>
</linearGradient>
</defs>
</svg>